<svg viewBox="0 0 256 256" xmlns="http://www.w3.org/2000/svg">
<defs>
<linearGradient gradientUnits="userSpaceOnUse" id="d" x1="108.6646" x2="148.682" y1="14.8213" y2="241.7714">
<stop offset="0" stop-color="#ff8c8f"/>
<stop offset=".38" stop-color="#f21818"/>
<stop offset=".446" stop-color="#e51515"/>
<stop offset=".568" stop-color="#c20e0e"/>
<stop offset=".732" stop-color="#8a0202"/>
<stop offset=".761" stop-color="#800000"/>
</linearGradient>
<linearGradient gradientUnits="userSpaceOnUse" id="c" x2="0" y1="216.71" y2="239.2949">
<stop offset="0" stop-color="#ff444c" stop-opacity="0"/>
<stop offset=".237" stop-color="#ff393f" stop-opacity=".237"/>
<stop offset=".671" stop-color="#ff1b1e" stop-opacity=".671"/>
<stop offset="1" stop-color="#f00"/>
</linearGradient>
<linearGradient gradientUnits="userSpaceOnUse" id="b" x1="126.9907" x2="129.3565" y1="217.542" y2="24.0477">
<stop offset="0" stop-color="#e60000"/>
<stop offset=".357" stop-color="#dc0b0a"/>
<stop offset=".981" stop-color="#c02825"/>
<stop offset="1" stop-color="#bf2926"/>
</linearGradient>
<linearGradient gradientUnits="userSpaceOnUse" id="a" x1="128.2974" x2="128.2973" y1="216.1572" y2="25.6538">
<stop offset="0" stop-color="#b80000"/>
<stop offset="1" stop-color="#900"/>
</linearGradient>
<linearGradient gradientUnits="userSpaceOnUse" id="g" x2="0" y1="120.3198" y2="32.4355">
<stop offset="0" stop-color="#cf0000" stop-opacity="0"/>
<stop offset=".131" stop-color="#bf0000" stop-opacity=".131"/>
<stop offset=".515" stop-color="#960000" stop-opacity=".515"/>
<stop offset=".818" stop-color="#7c0000" stop-opacity=".818"/>
<stop offset="1" stop-color="#730000"/>
</linearGradient>
<linearGradient gradientUnits="userSpaceOnUse" id="f" x1="22.3491" x2="234.4102">
<stop offset="0" stop-color="#e8000f"/>
<stop offset="1" stop-color="#e0000f"/>
</linearGradient>
<linearGradient gradientUnits="userSpaceOnUse" id="e" x2="0" y1="104.6548" y2="1.6424">
<stop offset="0" stop-color="#fff" stop-opacity="0"/>
<stop offset="1" stop-color="#fff"/>
</linearGradient>
</defs>
<ellipse fill-opacity=".01" rx="74.076" ry="104" cy="126" cx="127.998" fill="#fff"/>
<path fill="url(#d)" d="m127.58,219.93c38.093,0 41.525-57.701 41.525-96.527 0-44.688-6.686-93.438-41.525-93.438-34.833,0-40.667,51.831-40.667,93.438-.005,38.47 3.117,96.53 40.667,96.53zm-.01-208.72c62.368,0 109.04,45.103 109.04,114.12 0,60.942-44.215,116.26-109.03,116.26-64.187,0-108.17-55.332-108.17-116.26-.001-68.47 45.227-114.12 108.16-114.12z" />
<path fill="url(#c)" fill-opacity=".5" d="m191.99,216.63c-16.223,14.319-37.636,22.453-64.411,22.453-26.537,0-47.842-8.134-64.021-22.453l54.895-.132c2.813.777 5.849,1.185 9.126,1.185 3.324,0 6.4-.271 9.246-1.048h55.16z"/>
<path fill="url(#b)" fill-opacity=".8" d="m127.56,217.11c-38.832,0-40.449-55.159-40.449-93.828 0-45.36 4.392-88.925 40.449-88.925s41.547,44.113 41.547,88.88c-.01,38.74-2.17,93.87-41.55,93.87zm.01-188.49c-42.417,0-46.658,56.642-46.658,94.636 0,43.015 8.46,98.88 46.658,98.88 40.686,0 47.812-55.944 47.812-98.88 0-37.389-4.52-94.638-47.81-94.638z"/>
<path fill="url(#a)" d="m127.58,215.73c-37.526,0-39.021-54.272-39.021-92.309 0-44.63 4.177-87.418 39.021-87.418 34.847,0 40.107,43.33 40.107,87.373-.01,38.1-2.05,92.35-40.11,92.35zm.01-185.56c-41.763,0-44.731,56.157-44.731,93.224 0,42.318 7.048,97.28 44.731,97.28 39.314,0 46.143-55.04 46.143-97.28 0-36.472-4.31-93.225-46.14-93.225z"/>
<path fill="url(#g)" fill-opacity=".5" d="m86.784,122.41c0-39.944 5.349-86.399 40.79-86.399s41.934,48.515 41.934,85.77c0-33.652-4.562-87.254-41.881-87.254-37.238-.005-40.836,53.645-40.836,87.884z"/>
<path fill="url(#f)" fill-opacity=".8" d="m22.349,124.62c0,58.949 40.173,115.07 105.47,115.07 65.771,0 106.59-57.72 106.59-115.07 0,56.832-41.77,114.15-106.59,114.15-64.334-.01-105.47-55.75-105.47-114.15z"/>
<path fill="url(#e)" fill-opacity=".65" d="m22.737,121.94c0-48.528 33.292-108.32 104.84-108.32 59.595,0 106.21,46.224 106.21,108.32 0-62.712-42.592-110.57-106.21-110.57-64.115-.007-104.84,46.55-104.84,110.57z"/>
</svg>
